# 3ds Max Wavefront OBJ Exporter v0.97b - (c)2007 guruware
# File Created: 11.11.2011 11:55:38

mtllib RightFootStep.mtl

#
# object Model_Geometry_Mesh
#

v  -0.0345 -1.1921 1.5207
v  -0.0345 -1.1891 1.5243
v  -0.6152 -1.1891 1.5204
v  -0.0345 -1.1173 1.5158
v  -0.5940 -1.1171 1.5119
v  0.5462 -1.1891 1.5204
v  0.5251 -1.1171 1.5119
v  -0.0345 -0.1924 0.4005
v  -0.0345 -0.1312 -0.0131
v  -0.3831 -0.2623 -0.0174
v  -0.3947 -0.3159 0.4023
v  -0.0345 -0.1862 -0.4402
v  -0.3099 -0.2882 -0.3734
v  0.3141 -0.2623 -0.0174
v  0.2410 -0.2882 -0.3734
v  0.3258 -0.3159 0.4023
v  -0.0345 -1.1877 -0.6162
v  -0.5300 -1.1877 -0.5079
v  -0.5071 -1.0508 -0.4976
v  -0.0345 -1.0508 -0.6040
v  -0.0345 -1.1935 -0.5083
v  0.4610 -1.1877 -0.5079
v  0.4382 -1.0508 -0.4976
v  -0.0345 -1.1954 -0.0479
v  -0.6951 -1.1877 -0.0477
v  -0.0345 -1.1952 0.4157
v  -0.7090 -1.1879 0.4156
v  -0.6647 -1.0508 -0.0432
v  -0.6788 -1.0589 0.4137
v  0.6261 -1.1877 -0.0477
v  0.6400 -1.1879 0.4156
v  0.5957 -1.0508 -0.0432
v  0.6099 -1.0589 0.4137
v  -0.0345 -1.1934 1.3586
v  -0.7926 -1.1889 1.3581
v  -0.7641 -1.1076 1.3504
v  -0.0345 -0.5615 1.2983
v  0.3962 -0.6394 1.3058
v  -0.4652 -0.6394 1.3058
v  0.6951 -1.1076 1.3504
v  0.7237 -1.1889 1.3581
v  -0.3794 -0.7546 1.4663
v  -0.0345 -0.7021 1.4630
v  0.3104 -0.7546 1.4663
v  -0.0345 -0.6281 1.4433
v  0.4089 -0.6977 1.4514
v  -0.4779 -0.6977 1.4514
v  -0.7795 -1.1164 1.5000
v  -0.8077 -1.1890 1.5084
v  -0.0345 -1.1931 1.5089
v  0.7105 -1.1164 1.5000
v  0.7388 -1.1890 1.5084
v  -0.0343 -1.1895 2.5802
v  -0.4313 -1.1889 2.4579
v  -0.3502 -1.1948 2.3642
v  -0.0343 -1.1970 2.4599
v  -0.0343 -1.0092 2.5284
v  -0.3908 -0.9978 2.4095
v  0.3628 -1.1889 2.4579
v  0.3222 -0.9978 2.4095
v  0.2817 -1.1948 2.3642
v  -0.0343 -0.7527 2.0172
v  -0.4106 -0.8055 2.0262
v  -0.2990 -0.8808 2.2943
v  -0.0343 -0.8600 2.3761
v  -0.0343 -0.6874 1.6672
v  -0.4621 -0.7479 1.6737
v  0.3421 -0.8055 2.0262
v  0.3935 -0.7479 1.6737
v  0.2305 -0.8808 2.2943
v  -0.5324 -0.9159 1.5540
v  -0.0343 -0.9156 1.5506
v  -0.0343 -1.1846 1.5740
v  -0.6127 -1.1846 1.5775
v  -0.0343 -1.1958 1.5785
v  -0.4634 -1.1929 1.5809
v  0.5441 -1.1846 1.5775
v  0.3949 -1.1929 1.5809
v  0.4639 -0.9159 1.5540
v  -0.0343 -1.1995 1.7223
v  -0.0343 -1.1995 2.0932
v  -0.5039 -1.1964 2.0927
v  -0.5847 -1.1959 1.7219
v  0.4354 -1.1964 2.0927
v  0.5161 -1.1959 1.7219
v  -0.6577 -1.1871 2.0911
v  -0.7645 -1.1853 1.7207
v  -0.5830 -0.9637 2.0531
v  -0.6664 -0.9292 1.6932
v  0.5892 -1.1871 2.0911
v  0.5145 -0.9637 2.0531
v  0.6960 -1.1853 1.7207
v  0.5979 -0.9292 1.6932
v  0.5451 -1.1958 1.5890
v  0.7343 -1.1846 1.5880
v  0.6278 -0.9169 1.5642
v  -0.0343 -1.1995 1.5893
v  -0.6136 -1.1958 1.5890
v  -0.8028 -1.1846 1.5880
v  -0.6963 -0.9169 1.5642
v  -0.0343 -0.6640 1.5418
v  -0.4805 -0.7272 1.5474
v  -0.0343 -0.7256 1.5374
v  -0.3804 -0.7754 1.5443
v  0.4120 -0.7272 1.5474
v  0.3119 -0.7754 1.5443
# 106 vertices

vn 0.0000 -0.9238 0.3828
vn 0.0000 -0.3674 0.9301
vn -0.0327 -0.6207 0.7834
vn 0.0000 0.1226 0.9925
vn -0.0368 0.1374 0.9898
vn 0.0327 -0.6207 0.7834
vn 0.0368 0.1374 0.9898
vn -0.0000 0.9680 0.2510
vn -0.0000 1.0000 0.0046
vn -0.7057 0.7064 -0.0545
vn -0.6692 0.7265 0.1562
vn -0.0000 0.7424 -0.6699
vn -0.5988 0.5754 -0.5571
vn 0.7057 0.7064 -0.0545
vn 0.5988 0.5754 -0.5571
vn 0.6692 0.7265 0.1562
vn -0.0000 -0.6088 -0.7933
vn -0.5711 -0.5437 -0.6150
vn -0.6469 0.2185 -0.7307
vn -0.0000 0.1481 -0.9890
vn -0.0000 -0.9996 -0.0289
vn 0.5711 -0.5437 -0.6150
vn 0.6469 0.2185 -0.7307
vn -0.0000 -1.0000 -0.0018
vn -0.7973 -0.5849 -0.1492
vn -0.0000 -1.0000 0.0010
vn -0.7803 -0.6240 -0.0427
vn -0.9483 0.2716 -0.1644
vn -0.9502 0.3105 -0.0258
vn 0.7973 -0.5848 -0.1492
vn 0.7803 -0.6240 -0.0426
vn 0.9483 0.2716 -0.1644
vn 0.9502 0.3105 -0.0258
vn 0.0000 -1.0000 0.0009
vn -0.8123 -0.5787 -0.0723
vn -0.8949 0.4426 -0.0567
vn -0.0000 0.9266 0.3759
vn 0.5657 0.7940 0.2227
vn -0.5657 0.7940 0.2227
vn 0.8949 0.4426 -0.0567
vn 0.8123 -0.5787 -0.0723
vn -0.0247 0.1746 0.9843
vn -0.0000 0.1981 0.9802
vn 0.0247 0.1746 0.9843
vn -0.0000 0.6733 0.7393
vn 0.4288 0.6149 0.6619
vn -0.4288 0.6149 0.6619
vn -0.6778 0.4184 0.6046
vn -0.7169 -0.4389 0.5417
vn 0.0000 -0.9990 0.0445
vn 0.6778 0.4184 0.6046
vn 0.7169 -0.4389 0.5417
vn -0.0000 -0.5179 0.8554
vn -0.5353 -0.4969 0.6830
vn -0.0207 -0.9994 0.0279
vn -0.0000 -0.9992 0.0397
vn -0.0000 0.5032 0.8642
vn -0.5125 0.5433 0.6650
vn 0.5353 -0.4969 0.6830
vn 0.5125 0.5433 0.6650
vn 0.0207 -0.9994 0.0279
vn 0.0000 0.9704 0.2416
vn -0.3979 0.8688 0.2947
vn -0.3087 0.8401 0.4461
vn 0.0000 0.8449 0.5350
vn 0.0000 0.9832 0.1828
vn -0.4015 0.8926 0.2050
vn 0.3979 0.8688 0.2947
vn 0.4015 0.8926 0.2050
vn 0.3087 0.8401 0.4461
vn -0.0371 -0.0540 -0.9979
vn 0.0000 -0.0771 -0.9970
vn 0.0000 -0.2317 -0.9728
vn -0.0355 -0.4167 -0.9084
vn -0.0000 -0.7241 -0.6897
vn -0.0061 -0.7204 -0.6935
vn 0.0355 -0.4167 -0.9084
vn 0.0061 -0.7204 -0.6935
vn 0.0371 -0.0540 -0.9979
vn -0.0000 -1.0000 0.0000
vn -0.0000 -1.0000 0.0041
vn -0.0351 -0.9993 0.0149
vn -0.0329 -0.9994 0.0061
vn 0.0351 -0.9993 0.0149
vn 0.0329 -0.9994 0.0061
vn -0.7867 -0.5173 0.3368
vn -0.8117 -0.5382 0.2267
vn -0.7611 0.5501 0.3435
vn -0.7862 0.5706 0.2374
vn 0.7867 -0.5173 0.3368
vn 0.7611 0.5502 0.3435
vn 0.8117 -0.5382 0.2267
vn 0.7862 0.5706 0.2374
vn 0.0363 -0.9288 -0.3688
vn 0.7901 -0.4365 -0.4303
vn 0.7006 0.4395 -0.5621
vn -0.0000 -0.9862 -0.1657
vn -0.0363 -0.9288 -0.3688
vn -0.7901 -0.4365 -0.4303
vn -0.7006 0.4395 -0.5621
vn 0.0000 0.8099 -0.5865
vn -0.3676 0.7329 -0.5725
vn 0.0000 0.0071 -1.0000
vn -0.0182 -0.0170 -0.9997
vn 0.3676 0.7329 -0.5725
vn 0.0182 -0.0170 -0.9997
# 106 vertex normals

vt 0.5000 0.0005 0.0000
vt 0.5000 0.0018 0.0000
vt 0.5938 0.0018 0.0000
vt 0.5000 0.0340 0.0000
vt 0.5938 0.0340 0.0000
vt 0.4063 0.0018 0.0000
vt 0.4063 0.0340 0.0000
vt 0.5000 0.2813 0.0000
vt 0.5000 0.3750 0.0000
vt 0.6250 0.3750 0.0000
vt 0.6250 0.2500 0.0000
vt 0.5000 0.4995 0.0000
vt 0.6250 0.5000 0.0000
vt 0.3750 0.3750 0.0000
vt 0.3750 0.5000 0.0000
vt 0.3750 0.2500 0.0000
vt 0.5000 0.7482 0.0000
vt 0.6250 0.7482 0.0000
vt 0.6250 0.7464 0.0000
vt 0.5000 0.7160 0.0000
vt 0.5000 0.7808 0.0000
vt 0.3750 0.7482 0.0000
vt 0.3750 0.7464 0.0000
vt 0.5000 0.8750 0.0000
vt 0.7500 0.0018 0.0000
vt 0.8750 0.0018 0.0000
vt 0.5000 1.0000 0.0000
vt 0.6563 0.0018 0.0000
vt 0.7500 0.0340 0.0000
vt 0.8750 0.0036 0.0000
vt 0.6563 0.0340 0.0000
vt 0.2500 0.0018 0.0000
vt 0.3438 0.0018 0.0000
vt 0.2500 0.0340 0.0000
vt 0.3438 0.0340 0.0000
vt 0.1250 0.0018 0.0000
vt 0.1250 0.0036 0.0000
vt 0.5000 0.0000 0.0000
vt 0.6250 0.0018 0.0000
vt 0.6250 0.0340 0.0000
vt 0.5000 0.2500 0.0000
vt 0.4063 0.2192 0.0000
vt 0.5938 0.2192 0.0000
vt 0.3750 0.0340 0.0000
vt 0.3750 0.0018 0.0000
vt 0.2500 0.2500 0.0000
vt 0.1250 0.2500 0.0000
vt 0.7500 0.2500 0.0000
vt 0.8750 0.2500 0.0000
vt 0.5694 0.1953 0.0000
vt 0.5000 0.2192 0.0000
vt 0.4306 0.1953 0.0000
vt 0.5000 0.0069 0.0000
vt 0.6241 0.0069 0.0000
vt 0.6250 0.0000 0.0000
vt 0.5000 0.1319 0.0000
vt 0.6241 0.1319 0.0000
vt 0.3759 0.0069 0.0000
vt 0.3759 0.1319 0.0000
vt 0.3750 0.0000 0.0000
vt 0.5000 0.3715 0.0000
vt 0.6250 0.3715 0.0000
vt 0.5000 0.2509 0.0000
vt 0.5000 0.4635 0.0000
vt 0.6250 0.4930 0.0000
vt 0.3750 0.3715 0.0000
vt 0.3750 0.4930 0.0000
vt 0.6250 0.6181 0.0000
vt 0.5000 0.6181 0.0000
vt 0.5000 0.7431 0.0000
vt 0.6250 0.7431 0.0000
vt 0.5000 0.7491 0.0000
vt 0.6250 0.7500 0.0000
vt 0.3750 0.7431 0.0000
vt 0.3750 0.7500 0.0000
vt 0.3750 0.6181 0.0000
vt 0.5000 0.7865 0.0000
vt 0.5000 0.8785 0.0000
vt 0.6250 0.8785 0.0000
vt 0.6250 0.7570 0.0000
vt 0.6250 1.0000 0.0000
vt 0.3750 0.8785 0.0000
vt 0.3750 1.0000 0.0000
vt 0.3750 0.7570 0.0000
vt 0.7465 0.0069 0.0000
vt 0.8385 0.0069 0.0000
vt 0.8680 0.0000 0.0000
vt 0.7465 0.0000 0.0000
vt 0.7465 0.1319 0.0000
vt 0.8385 0.1319 0.0000
vt 0.2535 0.0000 0.0000
vt 0.2535 0.0069 0.0000
vt 0.2535 0.1319 0.0000
vt 0.1615 0.0069 0.0000
vt 0.1615 0.1319 0.0000
vt 0.1320 0.0000 0.0000
vt 0.1285 0.0000 0.0000
vt 0.1285 0.0069 0.0000
vt 0.1285 0.1319 0.0000
vt 0.1250 0.0069 0.0000
vt 0.1250 0.1319 0.0000
vt 0.1250 0.0000 0.0000
vt 0.5000 0.7535 0.0000
vt 0.6250 0.7535 0.0000
vt 0.3750 0.7535 0.0000
vt 0.8715 0.0069 0.0000
vt 0.8715 0.0000 0.0000
vt 0.8750 0.0069 0.0000
vt 0.8750 0.0000 0.0000
vt 0.8715 0.1319 0.0000
vt 0.8750 0.1319 0.0000
vt 0.5000 0.4965 0.0000
vt 0.6250 0.4965 0.0000
vt 0.5000 0.5286 0.0000
vt 0.3750 0.4965 0.0000
vt 0.2535 0.2500 0.0000
vt 0.1320 0.2500 0.0000
vt 0.1285 0.2500 0.0000
vt 0.8715 0.2500 0.0000
vt 0.8680 0.2500 0.0000
vt 0.7465 0.2500 0.0000
# 121 texture coords

g Model_Geometry_Mesh
usemtl default
s 1
f 1/1/1 2/2/2 3/3/3 
f 2/2/2 4/4/4 5/5/5 3/3/3 
f 2/2/2 6/6/6 7/7/7 4/4/4 
f 6/6/6 2/2/2 1/1/1 
f 8/8/8 9/9/9 10/10/10 11/11/11 
f 9/9/9 12/12/12 13/13/13 10/10/10 
f 9/9/9 14/14/14 15/15/15 12/12/12 
f 14/14/14 9/9/9 8/8/8 16/16/16 
f 17/17/17 18/18/18 19/19/19 20/20/20 
f 18/18/18 17/17/17 21/21/21 
f 21/21/21 17/17/17 22/22/22 
f 17/17/17 20/20/20 23/23/23 22/22/22 
f 24/24/24 25/25/25 18/26/18 21/21/21 
f 26/27/26 27/28/27 25/25/25 24/24/24 
f 18/26/18 25/25/25 28/29/28 19/30/19 
f 25/25/25 27/28/27 29/31/29 28/29/28 
f 26/27/26 24/24/24 30/32/30 31/33/31 
f 30/32/30 32/34/32 33/35/33 31/33/31 
f 32/34/32 30/32/30 22/36/22 23/37/23 
f 24/24/24 21/21/21 22/36/22 30/32/30 
f 27/28/27 26/38/26 34/38/34 35/39/35 
f 36/40/36 29/31/29 27/28/27 35/39/35 
f 16/16/16 8/8/8 37/41/37 38/42/38 
f 11/11/11 39/43/39 37/41/37 8/8/8 
f 40/44/40 41/45/41 31/33/31 33/35/33 
f 34/38/34 26/38/26 31/33/31 41/45/41 
f 16/16/16 33/35/33 32/34/32 14/46/14 
f 15/47/15 14/46/14 32/34/32 23/37/23 
f 13/13/13 12/12/12 20/20/20 19/19/19 
f 20/20/20 12/12/12 15/15/15 23/23/23 
f 28/29/28 10/48/10 13/49/13 19/30/19 
f 11/11/11 10/48/10 28/29/28 29/31/29 
f 39/43/39 11/11/11 29/31/29 36/40/36 
f 42/50/42 5/5/5 4/4/4 43/51/43 
f 44/52/44 43/51/43 4/4/4 7/7/7 
f 38/42/38 40/44/40 33/35/33 16/16/16 
f 45/41/45 46/42/46 38/42/38 37/41/37 
f 45/41/45 43/51/43 44/52/44 46/42/46 
f 45/41/45 47/43/47 42/50/42 43/51/43 
f 45/41/45 37/41/37 39/43/39 47/43/47 
f 36/40/36 48/40/48 47/43/47 39/43/39 
f 47/43/47 48/40/48 5/5/5 42/50/42 
f 35/39/35 49/39/49 48/40/48 36/40/36 
f 48/40/48 49/39/49 3/3/3 5/5/5 
f 35/39/35 34/38/34 50/38/50 49/39/49 
f 3/3/3 49/39/49 50/38/50 1/1/1 
f 51/44/51 52/45/52 41/45/41 40/44/40 
f 50/38/50 34/38/34 41/45/41 52/45/52 
f 50/38/50 52/45/52 6/6/6 1/1/1 
f 6/6/6 52/45/52 51/44/51 7/7/7 
f 46/42/46 51/44/51 40/44/40 38/42/38 
f 7/7/7 51/44/51 46/42/46 44/52/44 
f 53/53/53 54/54/54 55/55/55 56/38/56 
f 57/56/57 58/57/58 54/54/54 53/53/53 
f 57/56/57 53/53/53 59/58/59 60/59/60 
f 53/53/53 56/38/56 61/60/61 59/58/59 
f 62/61/62 63/62/63 64/11/64 65/63/65 
f 63/62/63 62/61/62 66/64/66 67/65/67 
f 66/64/66 62/61/62 68/66/68 69/67/69 
f 62/61/62 65/63/65 70/16/70 68/66/68 
f 71/68/71 72/69/72 73/70/73 74/71/74 
f 73/70/73 75/72/75 76/73/76 74/71/74 
f 73/70/73 77/74/77 78/75/78 75/72/75 
f 73/70/73 72/69/72 79/76/79 77/74/77 
f 80/77/80 81/78/81 82/79/82 83/80/83 
f 81/78/81 56/27/56 55/81/55 82/79/82 
f 81/78/81 84/82/84 61/83/61 56/27/56 
f 84/82/84 81/78/81 80/77/80 85/84/85 
f 86/85/86 87/86/87 83/87/83 82/88/82 
f 88/89/88 89/90/89 87/86/87 86/85/86 
f 58/57/58 88/89/88 86/85/86 54/54/54 
f 54/54/54 86/85/86 82/88/82 55/55/55 
f 84/91/84 90/92/90 59/58/59 61/60/61 
f 90/92/90 91/93/91 60/59/60 59/58/59 
f 92/94/92 93/95/93 91/93/91 90/92/90 
f 90/92/90 84/91/84 85/96/85 92/94/92 
f 94/97/94 95/98/95 92/94/92 85/96/85 
f 95/98/95 96/99/96 93/95/93 92/94/92 
f 77/100/77 79/101/79 96/99/96 95/98/95 
f 77/100/77 95/98/95 94/97/94 78/102/78 
f 97/103/97 98/104/98 76/73/76 75/72/75 
f 97/103/97 80/77/80 83/80/83 98/104/98 
f 97/103/97 94/105/94 85/84/85 80/77/80 
f 97/103/97 75/72/75 78/75/78 94/105/94 
f 87/86/87 99/106/99 98/107/98 83/87/83 
f 98/107/98 99/106/99 74/108/74 76/109/76 
f 100/110/100 71/111/71 74/108/74 99/106/99 
f 89/90/89 100/110/100 99/106/99 87/86/87 
f 101/112/101 102/113/102 67/65/67 66/64/66 
f 101/112/101 103/114/103 104/13/104 102/113/102 
f 101/112/101 105/115/105 106/15/106 103/114/103 
f 101/112/101 66/64/66 69/67/69 105/115/105 
f 91/93/91 68/116/68 70/16/70 60/59/60 
f 68/116/68 91/93/91 93/95/93 69/117/69 
f 96/99/96 105/118/105 69/117/69 93/95/93 
f 105/118/105 96/99/96 79/101/79 106/47/106 
f 72/69/72 71/68/71 104/13/104 103/114/103 
f 72/69/72 103/114/103 106/15/106 79/76/79 
f 71/111/71 100/110/100 102/119/102 104/49/104 
f 100/110/100 89/90/89 67/120/67 102/119/102 
f 89/90/89 88/89/88 63/121/63 67/120/67 
f 88/89/88 58/57/58 64/11/64 63/121/63 
f 57/56/57 65/63/65 64/11/64 58/57/58 
f 57/56/57 60/59/60 70/16/70 65/63/65 
# 100 polygons - 4 triangles

